# xmcd
#
# Track frame offsets:
#  150
#  15003
#  27756
#  38489
#  58524
#  75272
#  85572
#  97792
#  111875
#  122506
#  138556
#  163395
#  172941
#  193245
#  215255
#  228065
#  240943
#
# Disc length: 3459 seconds
#
# Revision: 0
# Processed by: cddbd v1.5.1PL2 Copyright (c) Steve Scherf et al.
# Submitted via: Collectorz.com_Music_Collector 6.9
#
DISCID=b70d8111
DTITLE=Steve Kaufman - To The Lady
DYEAR=1964
DGENRE=Country
TTITLE0=01 - A New Boy Is Coming
TTITLE1=02 - Black Mountain Rag
TTITLE2=03 - Dreaming Of You
TTITLE3=04 - Farewell To The Lady
TTITLE4=05 - Flannery's Dream
TTITLE5=06 - Forked Deer
TTITLE6=07 - Have A Nice Day
TTITLE7=08 - Home Sweet Home
TTITLE8=09 - I Will
TTITLE9=10 - Medley of Drowsy Maggie, The Rights of Man,
TTITLE10=11 - Medley of Wind That Shakes The Barley, Sheeb
TTITLE11=12 - Silver Bells
TTITLE12=13 - The Star Of Munster
TTITLE13=14 - The Tennessee Stud
TTITLE14=15 - The wild Flatpicker's Rag
TTITLE15=16 - Under The Double Eagle
TTITLE16=17 - When You Wish Upon A Star
EXTD=
EXTT0=
EXTT1=
EXTT2=
EXTT3=
EXTT4=
EXTT5=
EXTT6=
EXTT7=
EXTT8=
EXTT9=
EXTT10=
EXTT11=
EXTT12=
EXTT13=
EXTT14=
EXTT15=
EXTT16=
PLAYORDER=
